# xmcd CD database file
#
# Track frame offsets:
#	150
#	17877
#	32060
#	53881
#	69699
#	91538
#	117173
#	138948
#	167045
#	192138
#	205181
#	222688
#	246097
#	260869
#	281048
#	302866
#
# Disc length: 4350 seconds
#
# Revision: 3
# Processed by: cddbd v1.5.2PL0 Copyright (c) Steve Scherf et al.
# Submitted via: CDex 1.51
#
DISCID=f110fc10
DTITLE=Various Artist - Original Garage Anthems disc three
DYEAR=1999
DGENRE=Blues
TTITLE0=The Artful Doger/ Re-Rewind (The Crowd Say Bo Selecta)
TTITLE1=Daniel Bedingfield/  Gotta Get Thru This
TTITLE2=Jhelisa/ Friendly Pressure
TTITLE3=Architechs ft. Nana/ Body Groove 
TTITLE4=Nu-Birth /Anytime
TTITLE5=Kathy Wood/ Give me Joy
TTITLE6=All Seints/ Never Ever
TTITLE7=Scott Gracia/ Waiting
TTITLE8=Artful Dodger and Romina Johnson/ Movin'  Too Fast
TTITLE9=Shanks and Bigfoot/ Sweet Like Chocolate
TTITLE10=Lovestation/ Tearsdrops (footsteps On the Dancefloor)
TTITLE11=Kristine Blond/ You Make Me Go Oooh
TTITLE12=Wookie/ What's Going On
TTITLE13=Basement Jaxx/ Jump 'N' Shout
TTITLE14=St. Germain/ Alabama Blues
TTITLE15=The Streets/ Has It Come To This?
EXTD=YEAR: 1999
EXTT0=
EXTT1=
EXTT2=
EXTT3=
EXTT4=
EXTT5=
EXTT6=
EXTT7=
EXTT8=
EXTT9=
EXTT10=
EXTT11=
EXTT12=
EXTT13=
EXTT14=
EXTT15=
PLAYORDER=
